<svg width="14" height="14" viewBox="0 0 14 14" fill="none" xmlns="http://www.w3.org/2000/svg">
    <path fill-rule="evenodd" clip-rule="evenodd" d="M4.25741 0.704206C4.13898 0.574135 3.97121 0.5 3.79529 0.5C3.61938 0.5 3.45161 0.574135 3.33317 0.704206L0.662881 3.63676C0.430483 3.89199 0.448987 4.28728 0.704211 4.51968C0.959434 4.75208 1.35473 4.73357 1.58713 4.47835L3.17029 2.73969V12.8552C3.17029 13.2004 3.45011 13.4802 3.79529 13.4802C4.14047 13.4802 4.42029 13.2004 4.42029 12.8552V2.73969L6.00345 4.47835C6.23585 4.73357 6.63115 4.75208 6.88637 4.51968C7.14159 4.28728 7.1601 3.89199 6.9277 3.63676L4.25741 0.704206ZM10.6661 13.2763C10.5477 13.4063 10.3799 13.4805 10.204 13.4805C10.0281 13.4805 9.8603 13.4063 9.74186 13.2763L7.07157 10.3437C6.83917 10.0885 6.85768 9.69319 7.1129 9.46079C7.36813 9.22839 7.76342 9.24689 7.99582 9.50212L9.57898 11.2408V1.12524C9.57898 0.780066 9.8588 0.500244 10.204 0.500244C10.5492 0.500244 10.829 0.780066 10.829 1.12524V11.2408L12.4121 9.50212C12.6445 9.24689 13.0398 9.22839 13.2951 9.46079C13.5503 9.69319 13.5688 10.0885 13.3364 10.3437L10.6661 13.2763Z" fill="#2D4650"/>
</svg>
